<mxfile>
    <diagram id="UOW7m2ev4oPxLiBa1cgc" name="Chests">
        <mxGraphModel dx="1498" dy="835" grid="1" gridSize="10" guides="1" tooltips="1" connect="1" arrows="1" fold="1" page="1" pageScale="1" pageWidth="2000" pageHeight="2000" math="0" shadow="0">
            <root>
                <mxCell id="0"/>
                <mxCell id="1" parent="0"/>
                <mxCell id="252" value="&lt;span style=&quot;font-size: 15px&quot;&gt;Scientific Samples&lt;/span&gt;" style="rounded=1;whiteSpace=wrap;html=1;fontColor=#ffffff;fillColor=#a20025;strokeColor=#6F0000;" parent="1" vertex="1">
                    <mxGeometry x="120" y="160" width="80" height="80" as="geometry"/>
                </mxCell>
                <mxCell id="304" value="&lt;font style=&quot;font-size: 14px&quot;&gt;Uncut Gems&lt;/font&gt;" style="rounded=1;whiteSpace=wrap;html=1;fillColor=#a20025;strokeColor=#6F0000;fontColor=#ffffff;" parent="1" vertex="1">
                    <mxGeometry x="120" y="40" width="80" height="80" as="geometry"/>
                </mxCell>
                <mxCell id="307" value="&lt;font style=&quot;font-size: 14px&quot;&gt;CHINA&lt;br&gt;Jiangzhou's Chest&lt;br&gt;&lt;/font&gt;" style="rounded=1;whiteSpace=wrap;html=1;" parent="1" vertex="1">
                    <mxGeometry y="40" width="80" height="80" as="geometry"/>
                </mxCell>
                <mxCell id="309" value="&lt;font style=&quot;font-size: 14px&quot;&gt;FRANCE&lt;br&gt;Treasure Chest of Alouette&lt;br&gt;&lt;/font&gt;" style="rounded=1;whiteSpace=wrap;html=1;" parent="1" vertex="1">
                    <mxGeometry y="160" width="80" height="80" as="geometry"/>
                </mxCell>
                <mxCell id="310" value="&lt;font style=&quot;font-size: 14px&quot;&gt;EGYPT&lt;br&gt;The Sultan's Keep All&lt;br&gt;&lt;/font&gt;" style="rounded=1;whiteSpace=wrap;html=1;" parent="1" vertex="1">
                    <mxGeometry y="280" width="80" height="80" as="geometry"/>
                </mxCell>
                <mxCell id="311" value="&lt;font style=&quot;font-size: 14px&quot;&gt;Cut Gems&lt;/font&gt;" style="rounded=1;whiteSpace=wrap;html=1;fillColor=#fa6800;strokeColor=#C73500;fontColor=#FFFFFF;" parent="1" vertex="1">
                    <mxGeometry x="240" y="40" width="80" height="80" as="geometry"/>
                </mxCell>
                <mxCell id="312" value="&lt;font style=&quot;font-size: 14px&quot;&gt;Smelted Metals&lt;/font&gt;" style="rounded=1;whiteSpace=wrap;html=1;fillColor=#e3c800;strokeColor=#B09500;fontColor=#FFFFFF;" parent="1" vertex="1">
                    <mxGeometry x="360" y="40" width="80" height="80" as="geometry"/>
                </mxCell>
                <mxCell id="313" value="Beetles" style="rounded=1;whiteSpace=wrap;html=1;fillColor=#60a917;strokeColor=#2D7600;fontColor=#ffffff;" parent="1" vertex="1">
                    <mxGeometry x="480" y="40" width="80" height="80" as="geometry"/>
                </mxCell>
                <mxCell id="314" value="&lt;font style=&quot;font-size: 14px&quot;&gt;Butterflies&lt;/font&gt;" style="rounded=1;whiteSpace=wrap;html=1;fillColor=#1ba1e2;strokeColor=#006EAF;fontColor=#ffffff;" parent="1" vertex="1">
                    <mxGeometry x="600" y="40" width="80" height="80" as="geometry"/>
                </mxCell>
                <mxCell id="315" value="&lt;font style=&quot;font-size: 14px&quot;&gt;Fireflies&lt;/font&gt;" style="rounded=1;whiteSpace=wrap;html=1;fillColor=#0050ef;strokeColor=#001DBC;fontColor=#ffffff;" parent="1" vertex="1">
                    <mxGeometry x="720" y="40" width="80" height="80" as="geometry"/>
                </mxCell>
                <mxCell id="316" value="&lt;font style=&quot;font-size: 14px&quot;&gt;Nanites&lt;/font&gt;" style="rounded=1;whiteSpace=wrap;html=1;fontColor=#ffffff;fillColor=#C478FF;strokeColor=#C478FF;" parent="1" vertex="1">
                    <mxGeometry x="840" y="40" width="80" height="80" as="geometry"/>
                </mxCell>
                <mxCell id="317" value="&lt;font style=&quot;font-size: 14px&quot;&gt;Adventuring&lt;/font&gt;" style="rounded=1;whiteSpace=wrap;html=1;fontColor=#ffffff;fillColor=#4C0099;strokeColor=#4C0099;" parent="1" vertex="1">
                    <mxGeometry x="960" y="40" width="80" height="80" as="geometry"/>
                </mxCell>
                <mxCell id="318" value="&lt;font style=&quot;font-size: 14px&quot;&gt;Certificates&lt;/font&gt;" style="rounded=1;whiteSpace=wrap;html=1;fontColor=#ffffff;fillColor=#d80073;strokeColor=#A50040;" parent="1" vertex="1">
                    <mxGeometry x="1080" y="40" width="80" height="80" as="geometry"/>
                </mxCell>
                <mxCell id="320" value="&lt;font style=&quot;font-size: 14px&quot;&gt;Paintings&lt;/font&gt;" style="rounded=1;whiteSpace=wrap;html=1;fillColor=#fa6800;strokeColor=#C73500;fontColor=#FFFFFF;" parent="1" vertex="1">
                    <mxGeometry x="240" y="160" width="80" height="80" as="geometry"/>
                </mxCell>
                <mxCell id="321" value="&lt;font style=&quot;font-size: 14px&quot;&gt;Sculptures&lt;/font&gt;" style="rounded=1;whiteSpace=wrap;html=1;fillColor=#e3c800;strokeColor=#B09500;fontColor=#FFFFFF;" parent="1" vertex="1">
                    <mxGeometry x="360" y="160" width="80" height="80" as="geometry"/>
                </mxCell>
                <mxCell id="322" value="&lt;font style=&quot;font-size: 14px&quot;&gt;Inventions&lt;/font&gt;" style="rounded=1;whiteSpace=wrap;html=1;fillColor=#60a917;strokeColor=#2D7600;fontColor=#ffffff;" parent="1" vertex="1">
                    <mxGeometry x="480" y="160" width="80" height="80" as="geometry"/>
                </mxCell>
                <mxCell id="323" value="&lt;font style=&quot;font-size: 14px&quot;&gt;Photographs&lt;/font&gt;" style="rounded=1;whiteSpace=wrap;html=1;fillColor=#1ba1e2;strokeColor=#006EAF;fontColor=#ffffff;" parent="1" vertex="1">
                    <mxGeometry x="600" y="160" width="80" height="80" as="geometry"/>
                </mxCell>
                <mxCell id="324" value="&lt;font style=&quot;font-size: 14px&quot;&gt;Gnomes&lt;/font&gt;" style="rounded=1;whiteSpace=wrap;html=1;fillColor=#0050ef;strokeColor=#001DBC;fontColor=#ffffff;" parent="1" vertex="1">
                    <mxGeometry x="720" y="160" width="80" height="80" as="geometry"/>
                </mxCell>
                <mxCell id="325" value="&lt;font style=&quot;font-size: 14px&quot;&gt;Trait Chips&lt;/font&gt;" style="rounded=1;whiteSpace=wrap;html=1;fontColor=#ffffff;fillColor=#C478FF;strokeColor=#C478FF;" parent="1" vertex="1">
                    <mxGeometry x="840" y="160" width="80" height="80" as="geometry"/>
                </mxCell>
                <mxCell id="326" value="&lt;font style=&quot;font-size: 14px&quot;&gt;Keys&lt;/font&gt;" style="rounded=1;whiteSpace=wrap;html=1;fontColor=#ffffff;fillColor=#4C0099;strokeColor=#4C0099;" parent="1" vertex="1">
                    <mxGeometry x="960" y="160" width="80" height="80" as="geometry"/>
                </mxCell>
                <mxCell id="327" value="&lt;font style=&quot;font-size: 14px&quot;&gt;Awards&lt;/font&gt;" style="rounded=1;whiteSpace=wrap;html=1;fontColor=#ffffff;fillColor=#d80073;strokeColor=#A50040;" parent="1" vertex="1">
                    <mxGeometry x="1080" y="160" width="80" height="80" as="geometry"/>
                </mxCell>
                <mxCell id="328" value="&lt;font style=&quot;font-size: 14px&quot;&gt;Gigantic Space Rocks&lt;/font&gt;" style="rounded=1;whiteSpace=wrap;html=1;fillColor=#a20025;strokeColor=#6F0000;fontColor=#ffffff;" parent="1" vertex="1">
                    <mxGeometry x="120" y="280" width="80" height="80" as="geometry"/>
                </mxCell>
                <mxCell id="329" value="&lt;span style=&quot;font-size: 14px&quot;&gt;Large Space Rocks&lt;/span&gt;" style="rounded=1;whiteSpace=wrap;html=1;fillColor=#fa6800;strokeColor=#C73500;fontColor=#FFFFFF;" parent="1" vertex="1">
                    <mxGeometry x="240" y="280" width="80" height="80" as="geometry"/>
                </mxCell>
                <mxCell id="330" value="&lt;font style=&quot;font-size: 14px&quot;&gt;Tiny Space Rocks&lt;/font&gt;" style="rounded=1;whiteSpace=wrap;html=1;fillColor=#e3c800;strokeColor=#B09500;fontColor=#FFFFFF;" parent="1" vertex="1">
                    <mxGeometry x="360" y="280" width="80" height="80" as="geometry"/>
                </mxCell>
                <mxCell id="331" value="&lt;font style=&quot;font-size: 14px&quot;&gt;Seeds&lt;/font&gt;" style="rounded=1;whiteSpace=wrap;html=1;fillColor=#60a917;strokeColor=#2D7600;fontColor=#ffffff;" parent="1" vertex="1">
                    <mxGeometry x="480" y="280" width="80" height="80" as="geometry"/>
                </mxCell>
                <mxCell id="332" value="&lt;font style=&quot;font-size: 14px&quot;&gt;Fairy Dust&lt;/font&gt;" style="rounded=1;whiteSpace=wrap;html=1;fillColor=#1ba1e2;strokeColor=#006EAF;fontColor=#ffffff;" parent="1" vertex="1">
                    <mxGeometry x="600" y="280" width="80" height="80" as="geometry"/>
                </mxCell>
                <mxCell id="333" value="&lt;font style=&quot;font-size: 14px&quot;&gt;A&lt;/font&gt;" style="rounded=1;whiteSpace=wrap;html=1;fillColor=#0050ef;strokeColor=#001DBC;fontColor=#ffffff;" parent="1" vertex="1">
                    <mxGeometry x="720" y="280" width="80" height="80" as="geometry"/>
                </mxCell>
                <mxCell id="334" value="&lt;font style=&quot;font-size: 14px&quot;&gt;Processors&lt;/font&gt;" style="rounded=1;whiteSpace=wrap;html=1;fontColor=#ffffff;fillColor=#C478FF;strokeColor=#C478FF;" parent="1" vertex="1">
                    <mxGeometry x="840" y="280" width="80" height="80" as="geometry"/>
                </mxCell>
                <mxCell id="335" value="&lt;font style=&quot;font-size: 14px&quot;&gt;Money&lt;/font&gt;" style="rounded=1;whiteSpace=wrap;html=1;fontColor=#ffffff;fillColor=#4C0099;strokeColor=#4C0099;" parent="1" vertex="1">
                    <mxGeometry x="960" y="280" width="80" height="80" as="geometry"/>
                </mxCell>
                <mxCell id="336" value="&lt;font style=&quot;font-size: 14px&quot;&gt;Gadgets&lt;/font&gt;" style="rounded=1;whiteSpace=wrap;html=1;fontColor=#ffffff;fillColor=#d80073;strokeColor=#A50040;" parent="1" vertex="1">
                    <mxGeometry x="1080" y="280" width="80" height="80" as="geometry"/>
                </mxCell>
                <mxCell id="338" value="&lt;font style=&quot;font-size: 14px&quot;&gt;Collections&lt;/font&gt;" style="rounded=1;whiteSpace=wrap;html=1;fontColor=#ffffff;fillColor=#000000;strokeColor=#000000;" parent="1" vertex="1">
                    <mxGeometry x="1320" y="40" width="80" height="80" as="geometry"/>
                </mxCell>
                <mxCell id="339" value="&lt;font style=&quot;font-size: 14px&quot; color=&quot;#000000&quot;&gt;Relics&lt;/font&gt;" style="rounded=1;whiteSpace=wrap;html=1;fillColor=#f9f7ed;strokeColor=#36393d;" parent="1" vertex="1">
                    <mxGeometry x="1200" y="40" width="80" height="80" as="geometry"/>
                </mxCell>
                <mxCell id="340" value="&lt;font style=&quot;font-size: 14px&quot;&gt;Collections&lt;/font&gt;" style="rounded=1;whiteSpace=wrap;html=1;fontColor=#ffffff;fillColor=#000000;strokeColor=#000000;" parent="1" vertex="1">
                    <mxGeometry x="1320" y="160" width="80" height="80" as="geometry"/>
                </mxCell>
                <mxCell id="341" value="&lt;font style=&quot;font-size: 14px&quot; color=&quot;#000000&quot;&gt;Relics&lt;/font&gt;" style="rounded=1;whiteSpace=wrap;html=1;fillColor=#f9f7ed;strokeColor=#36393d;" parent="1" vertex="1">
                    <mxGeometry x="1200" y="160" width="80" height="80" as="geometry"/>
                </mxCell>
                <mxCell id="342" value="&lt;font style=&quot;font-size: 14px&quot;&gt;Collections&lt;/font&gt;" style="rounded=1;whiteSpace=wrap;html=1;fontColor=#ffffff;fillColor=#000000;strokeColor=#000000;" parent="1" vertex="1">
                    <mxGeometry x="1320" y="280" width="80" height="80" as="geometry"/>
                </mxCell>
                <mxCell id="343" value="&lt;font style=&quot;font-size: 14px&quot; color=&quot;#000000&quot;&gt;Relics&lt;/font&gt;" style="rounded=1;whiteSpace=wrap;html=1;fillColor=#f9f7ed;strokeColor=#36393d;" parent="1" vertex="1">
                    <mxGeometry x="1200" y="280" width="80" height="80" as="geometry"/>
                </mxCell>
                <mxCell id="344" value="&lt;font style=&quot;font-size: 14px&quot;&gt;Necteaux: Nectar&lt;br&gt;&lt;/font&gt;" style="rounded=1;whiteSpace=wrap;html=1;" parent="1" vertex="1">
                    <mxGeometry y="400" width="80" height="80" as="geometry"/>
                </mxCell>
                <mxCell id="345" value="&lt;font style=&quot;font-size: 14px&quot;&gt;Cabinet: Alchemy Potions&lt;br&gt;&lt;/font&gt;" style="rounded=1;whiteSpace=wrap;html=1;" parent="1" vertex="1">
                    <mxGeometry x="120" y="400" width="80" height="80" as="geometry"/>
                </mxCell>
                <mxCell id="346" value="&lt;font style=&quot;font-size: 14px&quot;&gt;Bookshelf:&lt;br&gt;Books&lt;br&gt;&lt;/font&gt;" style="rounded=1;whiteSpace=wrap;html=1;" parent="1" vertex="1">
                    <mxGeometry x="240" y="400" width="80" height="80" as="geometry"/>
                </mxCell>
                <mxCell id="347" value="11" style="text;html=1;align=center;verticalAlign=middle;resizable=0;points=[];autosize=1;strokeColor=none;fontColor=#FFFFFF;" parent="1" vertex="1">
                    <mxGeometry x="80" y="70" width="30" height="20" as="geometry"/>
                </mxCell>
                <mxCell id="348" value="11" style="text;html=1;align=center;verticalAlign=middle;resizable=0;points=[];autosize=1;strokeColor=none;fontColor=#FFFFFF;" parent="1" vertex="1">
                    <mxGeometry x="80" y="190" width="30" height="20" as="geometry"/>
                </mxCell>
                <mxCell id="349" value="11" style="text;html=1;align=center;verticalAlign=middle;resizable=0;points=[];autosize=1;strokeColor=none;fontColor=#FFFFFF;" parent="1" vertex="1">
                    <mxGeometry x="80" y="310" width="30" height="20" as="geometry"/>
                </mxCell>
            </root>
        </mxGraphModel>
    </diagram>
</mxfile>